# xmcd
#
# Track frame offsets: 
#        150
#        12320
#        13271
#        16729
#        33156
#        54683
#        71920
#        82176
#        95168
#        96604
#        98104
#        123651
#        144031
#        168986
#        198698
#        205489
#        206276
#        226911
#        230069
#        238373
#        255183
#        278766
#        298333
#        300438
#        306724
#
# Disc length: 4459 seconds
#
# Revision: 0
# Processed by: cddbd v1.5.2PL0 Copyright (c) Steve Scherf et al.
# Submitted via: ExactAudioCopy v0.95b4
#
DISCID=76116919
DTITLE=The Beatles  - AB  Road - Complete Purple Chick Set v1.1 Jan.31
DTITLE=Various Artist - D2  FLAC
DYEAR=1900
DGENRE=
TTITLE0=The Long And Winding Road 31.29
TTITLE1=The Long And Winding Road (16A) 31.30
TTITLE2=The Long And Winding Road (16B) 31.31
TTITLE3=The Long And Winding Road (16C) 31.32
TTITLE4=The Long And Winding Road (16D) 31.33
TTITLE5=Lady Madonna 31.34
TTITLE6=The Long And Winding Road 31.35
TTITLE7=The Long And Winding Road (17A) 31.36
TTITLE8=The Long And Winding Road (17B) 31.37
TTITLE9=The Long And Winding Road 31.38
TTITLE10=The Long And Winding Road (18) 31.39
TTITLE11=The Long And Winding Road (19) 31.40
TTITLE12=I Want You (She's So Heavy) 31.41
TTITLE13=Let It Be 31.42
TTITLE14=Let It Be (20A) 31.43
TTITLE15=Let It Be (20B) 31.44
TTITLE16=Let It Be (20C) 31.45
TTITLE17=Build Me Up Buttercup 31.46
TTITLE18=Let It Be 31.47
TTITLE19=Let It Be (21) 31.48
TTITLE20=Let It Be (22) 31.49
TTITLE21=Let It Be (23) 31.50
TTITLE22=Let's Have A Party 31.51a
TTITLE23=Let's Have A Party 31.51b
TTITLE24=Let It Be 31.49P
EXTD=
EXTT0=
EXTT1=
EXTT2=
EXTT3=
EXTT4=
EXTT5=
EXTT6=
EXTT7=
EXTT8=
EXTT9=
EXTT10=
EXTT11=
EXTT12=
EXTT13=
EXTT14=
EXTT15=
EXTT16=
EXTT17=
EXTT18=
EXTT19=
EXTT20=
EXTT21=
EXTT22=
EXTT23=
EXTT24=
PLAYORDER=
